<svg width="115" height="55" viewBox="0 0 115 55" fill="none" xmlns="http://www.w3.org/2000/svg">
<path d="M60.8143 42.1637L73.4143 14.1637H78.5343L91.1743 42.1637H85.7343L74.8943 16.9237H76.9743L66.1743 42.1637H60.8143ZM66.6143 35.6837L68.0143 31.6037H83.1343L84.5343 35.6837H66.6143ZM94.7352 42.1637V14.1637H99.9352V42.1637H94.7352ZM108.629 27.2037C107.722 27.2037 106.949 26.897 106.309 26.2837C105.669 25.6437 105.349 24.8437 105.349 23.8837C105.349 22.8704 105.669 22.0704 106.309 21.4837C106.949 20.8704 107.722 20.5637 108.629 20.5637C109.535 20.5637 110.309 20.8704 110.949 21.4837C111.589 22.0704 111.909 22.8704 111.909 23.8837C111.909 24.8437 111.589 25.6437 110.949 26.2837C110.309 26.897 109.535 27.2037 108.629 27.2037ZM108.629 42.4437C107.722 42.4437 106.949 42.137 106.309 41.5237C105.669 40.8837 105.349 40.0837 105.349 39.1237C105.349 38.1104 105.669 37.3104 106.309 36.7237C106.949 36.1104 107.722 35.8037 108.629 35.8037C109.535 35.8037 110.309 36.1104 110.949 36.7237C111.589 37.3104 111.909 38.1104 111.909 39.1237C111.909 40.0837 111.589 40.8837 110.949 41.5237C110.309 42.137 109.535 42.4437 108.629 42.4437Z" fill="white"/>
<path d="M27.1254 52.9137C41.0706 52.9137 52.3754 41.6089 52.3754 27.6637C52.3754 13.7185 41.0706 2.4137 27.1254 2.4137C13.1802 2.4137 1.87537 13.7185 1.87537 27.6637C1.87537 41.6089 13.1802 52.9137 27.1254 52.9137Z" fill="#2B2D42" stroke="#8D99AE" stroke-width="3.5"/>
<line x1="7.64515" y1="35.3062" x2="22.6487" y2="12.071" stroke="#8D99AE" stroke-width="3"/>
<line x1="47.5135" y1="31.6674" x2="22.2837" y2="15.4064" stroke="#8D99AE" stroke-width="6"/>
<path d="M12.9327 27.3299C12.9327 27.3299 19.3114 24.8173 23.6098 24.3997C28.2488 23.9489 35.511 25.448 35.511 25.448" stroke="#8D99AE" stroke-width="3" stroke-linecap="round"/>
</svg>
