<svg width="423" height="107" viewBox="0 0 423 107" fill="none" xmlns="http://www.w3.org/2000/svg">
<path d="M130.08 81.9316V25.9316H138.64L163.12 66.8116H158.64L182.72 25.9316H191.28L191.36 81.9316H181.52L181.44 41.3716H183.52L163.04 75.5316H158.4L137.6 41.3716H140V81.9316H130.08ZM232.726 82.7316C228.353 82.7316 224.326 82.0116 220.646 80.5716C216.966 79.1316 213.766 77.1316 211.046 74.5716C208.326 71.9583 206.22 68.9183 204.726 65.4516C203.233 61.9316 202.486 58.0916 202.486 53.9316C202.486 49.7716 203.233 45.9583 204.726 42.4916C206.22 38.9716 208.326 35.9316 211.046 33.3716C213.766 30.7583 216.966 28.7316 220.646 27.2916C224.326 25.8516 228.326 25.1316 232.646 25.1316C237.02 25.1316 241.02 25.8516 244.646 27.2916C248.326 28.7316 251.526 30.7583 254.246 33.3716C256.966 35.9316 259.073 38.9716 260.566 42.4916C262.06 45.9583 262.806 49.7716 262.806 53.9316C262.806 58.0916 262.06 61.9316 260.566 65.4516C259.073 68.9716 256.966 72.0116 254.246 74.5716C251.526 77.1316 248.326 79.1316 244.646 80.5716C241.02 82.0116 237.046 82.7316 232.726 82.7316ZM232.646 73.6116C235.473 73.6116 238.086 73.1316 240.486 72.1716C242.886 71.2116 244.966 69.8516 246.726 68.0916C248.486 66.2783 249.846 64.1983 250.806 61.8516C251.82 59.4516 252.326 56.8116 252.326 53.9316C252.326 51.0516 251.82 48.4383 250.806 46.0916C249.846 43.6916 248.486 41.6116 246.726 39.8516C244.966 38.0383 242.886 36.6516 240.486 35.6916C238.086 34.7316 235.473 34.2516 232.646 34.2516C229.82 34.2516 227.206 34.7316 224.806 35.6916C222.46 36.6516 220.38 38.0383 218.566 39.8516C216.806 41.6116 215.42 43.6916 214.406 46.0916C213.446 48.4383 212.966 51.0516 212.966 53.9316C212.966 56.7583 213.446 59.3716 214.406 61.7716C215.42 64.1716 216.806 66.2783 218.566 68.0916C220.326 69.8516 222.406 71.2116 224.806 72.1716C227.206 73.1316 229.82 73.6116 232.646 73.6116ZM273.83 81.9316V25.9316H282.39L317.51 69.0516H313.27V25.9316H323.59V81.9316H315.03L279.91 38.8116H284.15V81.9316H273.83Z" fill="#8D99AE"/>
<path d="M330.676 81.9316L355.876 25.9316H366.116L391.396 81.9316H380.516L358.836 31.4516H362.996L341.396 81.9316H330.676ZM342.276 68.9716L345.076 60.8116H375.316L378.116 68.9716H342.276ZM398.518 81.9316V25.9316H408.918V81.9316H398.518Z" fill="white"/>
<path d="M53.3991 104.391C81.267 104.391 103.858 81.7994 103.858 53.9316C103.858 26.0638 81.267 3.47241 53.3991 3.47241C25.5313 3.47241 2.93994 26.0638 2.93994 53.9316C2.93994 81.7994 25.5313 104.391 53.3991 104.391Z" fill="#2B2D42" stroke="#8D99AE" stroke-width="5"/>
<line x1="13.6951" y1="69.5618" x2="44.3145" y2="22.1431" stroke="#8D99AE" stroke-width="6"/>
<line x1="95.0738" y1="61.9994" x2="43.5843" y2="28.8138" stroke="#8D99AE" stroke-width="12"/>
<path d="M24.4347 53.2503C24.4347 53.2503 37.4524 48.1227 46.2246 47.2703C55.6921 46.3505 70.5127 49.4098 70.5127 49.4098" stroke="#8D99AE" stroke-width="6" stroke-linecap="round"/>
</svg>
