<svg width="209" height="55" viewBox="0 0 209 55" fill="none" xmlns="http://www.w3.org/2000/svg">
<path d="M64.8808 42.3802V14.3802H69.1608L81.4009 34.8202H79.1609L91.2009 14.3802H95.4809L95.5209 42.3802H90.6009L90.5609 22.1002H91.6009L81.3609 39.1802H79.0409L68.6408 22.1002H69.8408V42.3802H64.8808ZM116.204 42.7802C114.017 42.7802 112.004 42.4202 110.164 41.7002C108.324 40.9802 106.724 39.9802 105.364 38.7002C104.004 37.3935 102.951 35.8735 102.204 34.1402C101.457 32.3802 101.084 30.4602 101.084 28.3802C101.084 26.3002 101.457 24.3935 102.204 22.6602C102.951 20.9002 104.004 19.3802 105.364 18.1002C106.724 16.7935 108.324 15.7802 110.164 15.0602C112.004 14.3402 114.004 13.9802 116.164 13.9802C118.351 13.9802 120.351 14.3402 122.164 15.0602C124.004 15.7802 125.604 16.7935 126.964 18.1002C128.324 19.3802 129.377 20.9002 130.124 22.6602C130.871 24.3935 131.244 26.3002 131.244 28.3802C131.244 30.4602 130.871 32.3802 130.124 34.1402C129.377 35.9002 128.324 37.4202 126.964 38.7002C125.604 39.9802 124.004 40.9802 122.164 41.7002C120.351 42.4202 118.364 42.7802 116.204 42.7802ZM116.164 38.2202C117.577 38.2202 118.884 37.9802 120.084 37.5002C121.284 37.0202 122.324 36.3402 123.204 35.4602C124.084 34.5535 124.764 33.5135 125.244 32.3402C125.751 31.1402 126.004 29.8202 126.004 28.3802C126.004 26.9402 125.751 25.6335 125.244 24.4602C124.764 23.2602 124.084 22.2202 123.204 21.3402C122.324 20.4335 121.284 19.7402 120.084 19.2602C118.884 18.7802 117.577 18.5402 116.164 18.5402C114.751 18.5402 113.444 18.7802 112.244 19.2602C111.071 19.7402 110.031 20.4335 109.124 21.3402C108.244 22.2202 107.551 23.2602 107.044 24.4602C106.564 25.6335 106.324 26.9402 106.324 28.3802C106.324 29.7935 106.564 31.1002 107.044 32.3002C107.551 33.5002 108.244 34.5535 109.124 35.4602C110.004 36.3402 111.044 37.0202 112.244 37.5002C113.444 37.9802 114.751 38.2202 116.164 38.2202ZM136.756 42.3802V14.3802H141.036L158.596 35.9402H156.476V14.3802H161.636V42.3802H157.356L139.796 20.8202H141.916V42.3802H136.756Z" fill="#8D99AE"/>
<path d="M165.179 42.3802L177.779 14.3802H182.899L195.539 42.3802H190.099L179.259 17.1402H181.339L170.539 42.3802H165.179ZM170.979 35.9002L172.379 31.8202H187.499L188.899 35.9002H170.979ZM199.1 42.3802V14.3802H204.3V42.3802H199.1Z" fill="white"/>
<path d="M27.2319 53.1302C41.1771 53.1302 52.4819 41.8253 52.4819 27.8802C52.4819 13.935 41.1771 2.63016 27.2319 2.63016C13.2867 2.63016 1.98193 13.935 1.98193 27.8802C1.98193 41.8253 13.2867 53.1302 27.2319 53.1302Z" fill="#2B2D42" stroke="#8D99AE" stroke-width="3.5"/>
<line x1="7.75172" y1="35.5227" x2="22.7552" y2="12.2875" stroke="#8D99AE" stroke-width="3"/>
<line x1="47.62" y1="31.8839" x2="22.3902" y2="15.6229" stroke="#8D99AE" stroke-width="6"/>
<path d="M13.0394 27.5463C13.0394 27.5463 19.418 25.0338 23.7164 24.6161C28.3554 24.1654 35.6176 25.6644 35.6176 25.6644" stroke="#8D99AE" stroke-width="3" stroke-linecap="round"/>
</svg>
